<svg width="25" height="25" viewBox="0 0 25 25" fill="none" xmlns="http://www.w3.org/2000/svg">
<path fill-rule="evenodd" clip-rule="evenodd" d="M12.7013 21.6876C10.8629 21.6876 10.0085 21.4217 8.5235 20.358C7.58417 21.5547 4.60961 22.4898 4.47993 20.8899C4.47993 19.6888 4.21153 18.6739 3.90738 17.5659C3.54505 16.2009 3.13354 14.6808 3.13354 12.4781C3.13354 7.21739 7.49024 3.25965 12.6521 3.25965C17.8183 3.25965 21.8664 7.41238 21.8664 12.5268C21.8837 17.5622 17.7832 21.6608 12.7013 21.6876V21.6876ZM12.7773 7.80677C10.2635 7.67825 8.30431 9.4023 7.87044 12.1058C7.5126 14.3439 8.14775 17.0695 8.689 17.2114C8.94843 17.2734 9.60148 16.7504 10.0085 16.3471C10.6816 16.8079 11.4654 17.0845 12.2808 17.1493C14.8855 17.2734 17.1112 15.3087 17.2861 12.7307C17.3879 10.1473 15.3824 7.95907 12.7773 7.81125V7.80681L12.7773 7.80677Z" fill="white"/>
</svg>
