<svg width="30" height="30" viewBox="0 0 30 30" fill="none" xmlns="http://www.w3.org/2000/svg">
<g clip-path="url(#clip0_15_145)">
<path d="M24.1748 0H5.82508C2.60791 0 -0.00012207 2.5841 -0.00012207 5.77175V24.2282C-0.00012207 27.4159 2.60791 30 5.82508 30H24.1748C27.3919 30 30 27.4159 30 24.2282V5.77175C30 2.5841 27.3919 0 24.1748 0Z" fill="url(#paint0_linear_15_145)"/>
<path fill-rule="evenodd" clip-rule="evenodd" d="M15.2415 26.0252C13.0354 26.0252 12.0102 25.7061 10.2282 24.4297C9.101 25.8656 5.53153 26.9878 5.37592 25.0679C5.37592 23.6266 5.05383 22.4088 4.68885 21.0792C4.25406 19.4411 3.76025 17.617 3.76025 14.9737C3.76025 8.66091 8.98828 3.91162 15.1825 3.91162C21.382 3.91162 26.2397 8.8949 26.2397 15.0322C26.2605 21.0746 21.3399 25.9929 15.2415 26.0252V26.0252ZM15.3327 9.36817C12.3162 9.21394 9.96517 11.2828 9.44453 14.527C9.01512 17.2127 9.77729 20.4835 10.4268 20.6537C10.7381 20.7281 11.5218 20.1005 12.0102 19.6166C12.8179 20.1695 13.7584 20.5015 14.737 20.5792C17.8626 20.7282 20.5334 18.3705 20.7433 15.2769C20.8655 12.1767 18.4589 9.55093 15.3328 9.37355V9.36821L15.3327 9.36817Z" fill="white"/>
</g>
<defs>
<linearGradient id="paint0_linear_15_145" x1="29.9999" y1="15" x2="-0.00012207" y2="15" gradientUnits="userSpaceOnUse">
<stop stop-color="#45C5FD"/>
<stop offset="0.137255" stop-color="#3F86F5"/>
<stop offset="0.290196" stop-color="#3946ED"/>
<stop offset="0.443137" stop-color="#4E4BEA"/>
<stop offset="0.560784" stop-color="#6451E6"/>
<stop offset="0.788235" stop-color="#9054DB"/>
<stop offset="1" stop-color="#934FE3"/>
</linearGradient>
<clipPath id="clip0_15_145">
<rect width="30" height="30" rx="15" fill="white"/>
</clipPath>
</defs>
</svg>
