<svg width="54" height="54" viewBox="0 0 54 54" fill="none" xmlns="http://www.w3.org/2000/svg">
<circle cx="27" cy="27" r="26.5" fill="#1E1E1E" stroke="#787878"/>
<path d="M30.041 17.5544L21.0392 26.789C20.8811 26.9512 20.7926 27.1688 20.7926 27.3953C20.7926 27.6218 20.8811 27.8394 21.0392 28.0016L30.041 37.2396C30.1146 37.3153 30.2027 37.3754 30.2999 37.4164C30.3972 37.4575 30.5017 37.4786 30.6073 37.4786C30.7129 37.4786 30.8174 37.4575 30.9146 37.4164C31.0119 37.3754 31.0999 37.3153 31.1736 37.2396C31.3251 37.0845 31.4099 36.8763 31.4099 36.6594C31.4099 36.4426 31.3251 36.2344 31.1736 36.0792L22.7085 27.3953L31.1736 18.7131C31.3246 18.5581 31.4091 18.3502 31.4091 18.1338C31.4091 17.9174 31.3246 17.7095 31.1736 17.5544C31.0999 17.4788 31.0119 17.4187 30.9146 17.3776C30.8174 17.3366 30.7129 17.3154 30.6073 17.3154C30.5017 17.3154 30.3972 17.3366 30.2999 17.3776C30.2027 17.4187 30.1146 17.4788 30.041 17.5544Z" fill="#D0D0D0"/>
</svg>
