<svg width="82" height="82" viewBox="0 0 82 82" fill="none" xmlns="http://www.w3.org/2000/svg">
<path d="M63.5321 46.125L59.7242 49.9329L57.6332 39.4766L56.129 30.9512C55.4474 27.0895 53.5165 23.7339 50.8067 21.2393L55.4717 15.6415C56.0547 14.9419 56.375 14.0566 56.375 13.1469C56.375 11.6619 55.5499 10.3269 54.2212 9.66191L53.7894 9.44666C53.1655 9.13403 52.4659 8.96875 51.7663 8.96875C50.1968 8.96875 48.7631 9.76313 47.9303 11.0943L44.5247 16.5435L47.1538 8.65741C47.3217 8.15003 47.4062 7.62344 47.4062 7.09172C47.4062 5.43122 46.5811 3.88987 45.1999 2.96866L43.5535 1.87063C42.9757 1.48497 42.3017 1.28125 41.606 1.28125C39.8827 1.28125 38.4272 2.51381 38.1441 4.21403L36.6809 12.9957L36.0377 4.63812C35.8929 2.75597 34.3003 1.28125 32.4131 1.28125C32.0197 1.28125 31.6341 1.34403 31.2638 1.46831L29.9633 1.90137C28.135 2.50997 26.9062 4.21531 26.9062 6.14231C26.9062 6.38831 26.9267 6.63431 26.9665 6.87775L29.1254 19.8325C28.1772 20.5 27.2983 21.2688 26.4962 22.1233L24.0273 19.6544C23.379 19.0061 22.9831 18.1451 22.9126 17.2315L21.9504 4.72012C21.803 2.79184 20.172 1.28125 18.2386 1.28125C17.9324 1.28125 17.6274 1.31841 17.3353 1.39272L14.6498 2.06409C12.8125 2.52278 11.5312 4.16406 11.5312 6.05775C11.5312 6.396 11.5722 6.73169 11.6542 7.05584L13.7401 15.3968C13.8247 15.7338 13.6658 16.0784 13.3545 16.2334C13.1046 16.359 12.8099 16.3321 12.5844 16.1643L9.24293 13.6581C8.51518 13.1123 7.61318 12.8125 6.7035 12.8125C5.28643 12.8125 3.96931 13.5172 3.18262 14.6972L1.96287 16.5268C1.517 17.1957 1.28125 17.9759 1.28125 18.7806C1.28125 20.3296 2.14225 21.7223 3.52728 22.4155L8.8009 25.0523C9.96428 25.634 10.8278 26.641 11.2468 27.8416C5.44531 29.9877 1.28125 35.6405 1.28125 42.2761C1.2505 50.0059 4.18328 57.441 9.54018 63.2105C15.366 69.4847 22.6487 74.488 30.5988 77.6771L37.0191 80.2511C37.7969 80.5612 38.6169 80.7188 39.4574 80.7188C40.7463 80.7188 42.0071 80.2678 43.0039 79.4529L43.6394 78.9352C51.6664 72.3663 57.4922 63.2374 60.0842 53.1975L64.5929 48.6875H80.7187V46.125H63.5321ZM50.1033 12.4538C50.6235 11.6197 51.7651 11.2993 52.6427 11.7388L53.0758 11.9553C53.5306 12.1821 53.8125 12.6382 53.8125 13.1469C53.8125 13.4583 53.7036 13.7606 53.5037 14.0002L48.8028 19.6416C48.0558 19.1355 47.2743 18.6793 46.453 18.2937L50.1033 12.4538ZM40.672 4.63556C40.7783 3.99238 41.5894 3.64259 42.1313 4.00262L43.7777 5.10066C44.4453 5.54525 44.8437 6.28966 44.8437 7.09172C44.8437 7.34925 44.8027 7.60422 44.7207 7.84766L41.7136 16.8689C40.8552 16.7383 39.9827 16.6562 39.0909 16.6562C38.9474 16.6562 38.8078 16.6793 38.6643 16.6819L40.672 4.63556ZM29.4944 6.4575C29.4777 6.35244 29.4687 6.24738 29.4687 6.14231C29.4687 5.31975 29.9928 4.59328 30.7743 4.33191L32.0761 3.89756C32.7103 3.69 33.4329 4.16406 33.4842 4.83416L34.4438 17.3174C33.4252 17.6018 32.4374 17.9759 31.4918 18.4385L29.4944 6.4575ZM39.0909 19.2188C43.1371 19.2188 46.8438 20.8536 49.5293 23.5455L48.1852 23.7698C45.6471 24.1926 43.2435 25.265 41.2319 26.8742C39.1396 28.5475 36.5131 29.4688 33.834 29.4688H33.6226C30.882 29.4688 28.2733 28.5309 26.1682 26.8204C26.4347 26.3745 26.7153 25.9351 27.0152 25.5071C29.7711 21.5686 34.285 19.2188 39.0909 19.2188ZM9.94762 22.7601L4.67271 20.1233C4.1615 19.8671 3.84375 19.352 3.84375 18.7806C3.84375 18.4833 3.93087 18.195 4.09615 17.9478L5.3159 16.1194C5.82456 15.3545 6.97128 15.161 7.70671 15.7094L11.0469 18.2155C12.054 18.9715 13.3762 19.0906 14.5012 18.5282C15.8939 17.8312 16.6037 16.2898 16.227 14.7779L14.1412 6.43572C14.1091 6.31144 14.0937 6.18459 14.0937 6.05775C14.0937 5.34281 14.5768 4.72397 15.2699 4.551L17.9593 3.87963C18.6217 3.70794 19.343 4.22172 19.3956 4.91744L20.3578 17.4288C20.4744 18.9522 21.1342 20.3872 22.2156 21.4673L24.8652 24.117C24.0414 25.3034 23.3418 26.5526 22.746 27.8441L19.5442 27.2035C18.5627 27.0062 17.5557 26.9062 16.5525 26.9062H16.3846C15.4724 26.9062 14.5845 27.0023 13.7158 27.1612C13.1033 25.265 11.767 23.6698 9.94762 22.7601ZM16.3846 29.4688H16.5525C17.3866 29.4688 18.2245 29.552 19.0419 29.7147L21.7812 30.2631C20.9433 32.7526 20.5 35.3715 20.5 38.0493V38.7437C20.5 42.8834 17.3135 46.125 13.2443 46.125C10.004 46.125 6.9559 44.863 4.66375 42.5721L3.86937 41.7752C4.13203 34.9461 9.63756 29.4688 16.3846 29.4688ZM42.0173 76.9506L41.3818 77.4695C40.4414 78.237 39.0871 78.3164 37.9711 77.8705L31.5533 75.2991C23.9517 72.2497 16.9894 67.4655 11.4185 61.4667C7.24034 56.9682 4.69065 51.3666 4.03209 45.437C6.63559 47.5395 9.85153 48.6875 13.2443 48.6875C18.6588 48.6875 23.0625 44.2275 23.0625 38.7437V38.0493C23.0625 34.9422 23.7262 31.9223 24.9754 29.1331C27.4597 31.005 30.4694 32.0312 33.6238 32.0312H33.8352C37.0935 32.0312 40.2889 30.9102 42.8335 28.8742C44.5029 27.5392 46.4991 26.6474 48.6068 26.2964L51.3807 25.8338C52.4646 27.4764 53.2449 29.3509 53.6049 31.3958L55.0617 39.6508L51.3704 52.5723L46.0891 30.1286L42.5349 46.125H39.5893C38.9936 43.205 36.4067 41 33.3125 41C29.7801 41 26.9062 43.8738 26.9062 47.4062C26.9062 50.9387 29.7801 53.8125 33.3125 53.8125C36.4054 53.8125 38.9936 51.6075 39.5893 48.6875H44.5901L46.1609 41.6201L51.1296 62.739L56.1546 45.1513L57.6217 52.4864C55.1745 62.0304 49.6433 70.7096 42.0173 76.9506ZM37.1562 47.4062C37.1562 49.5254 35.4317 51.25 33.3125 51.25C31.1933 51.25 29.4687 49.5254 29.4687 47.4062C29.4687 45.2871 31.1933 43.5625 33.3125 43.5625C35.4317 43.5625 37.1562 45.2871 37.1562 47.4062Z" fill="#00A29A"/>
</svg>
