<svg width="86" height="86" viewBox="0 0 86 86" fill="none" xmlns="http://www.w3.org/2000/svg">
<path d="M84.7402 41.7009H78.0077C79.8068 37.2812 80.3862 32.8858 79.6821 28.8447C78.467 21.8786 73.5926 16.3802 66.6429 14.1383C58.7189 11.5813 49.9615 13.82 43 20.1241C35.5379 13.3726 25.9604 11.3005 17.743 14.7347C17.1013 15.003 16.7982 15.7405 17.0665 16.3829C17.3349 17.0246 18.0724 17.3277 18.7147 17.0593C22.2362 15.5876 26.1736 15.2445 30.1025 16.0673C34.4106 16.9694 38.5665 19.2816 42.1195 22.7545C42.6089 23.2328 43.3911 23.2328 43.8805 22.7545C50.2935 16.4872 58.5135 14.1625 65.8693 16.5364C71.9129 18.4864 76.1482 23.2492 77.2 29.2777C77.8719 33.1332 77.2033 37.3973 75.2671 41.7009H67.1947C66.765 41.7009 66.3654 41.9194 66.1338 42.2809L62.5172 47.9282C62.5172 47.9282 55.8201 35.2623 55.8109 35.2452C55.33 34.3358 53.9705 34.3805 53.5486 35.3167L43.1352 58.4282C43.1352 58.4282 32.5197 28.7076 32.4895 28.6236C32.1148 27.5751 30.5979 27.5213 30.1497 28.5396L21.9265 47.2163L19.9699 42.4797C19.775 42.0079 19.3151 41.7009 18.8053 41.7009H10.7421C9.57356 39.1157 8.85838 36.5568 8.62743 34.0845C8.08743 28.3008 10.2448 22.9966 14.5464 19.5316C15.0877 19.0953 15.1736 18.302 14.7366 17.7601C14.3003 17.2181 13.507 17.1328 12.9657 17.5691C7.99426 21.5735 5.49835 27.6788 6.11905 34.3188C6.34738 36.7694 6.97202 39.2358 7.97655 41.7009H1.25977C0.56427 41.7009 0 42.2651 0 42.9606C0 43.6568 0.56427 44.2204 1.25977 44.2204H9.13593C14.1704 54.0485 25.1763 63.7743 41.1917 72.3552C42.315 72.9568 43.6843 72.9568 44.8083 72.3552C49.1473 70.0305 53.1674 67.5963 56.7577 65.122C57.3305 64.727 57.4748 63.9423 57.0798 63.3695C56.6849 62.7967 55.9008 62.6523 55.3273 63.0473C51.8144 65.4691 47.875 67.8535 43.6181 70.1342C43.2316 70.3415 42.769 70.3409 42.3819 70.1342C31.2691 64.1805 22.6889 57.7589 16.8802 51.0481C14.9289 48.793 13.3023 46.5037 12.019 44.2204H17.9628C17.9628 44.2204 20.7179 50.888 20.7258 50.9077C21.1411 51.9135 22.6062 51.9273 23.0432 50.9339L31.1812 32.4508C31.1812 32.4508 41.7842 62.1366 41.8137 62.218C42.1864 63.2619 43.6935 63.3209 44.1482 62.3118L54.7873 38.7004C54.7873 38.7004 61.2876 50.993 61.2994 51.0153C61.7436 51.8558 62.962 51.905 63.4738 51.1058L67.8837 44.2204H73.9902C70.9589 49.6105 66.055 54.9428 59.3953 60.0836C58.8442 60.5088 58.7425 61.3001 59.1676 61.8506C59.5751 62.3781 60.3795 62.5067 60.9346 62.0782C68.2576 56.425 73.567 50.5048 76.7164 44.4809C76.7617 44.3943 76.8057 44.3077 76.8503 44.2204H84.7402C85.4357 44.2204 86 43.6561 86 42.9606C86 42.2651 85.4357 41.7009 84.7402 41.7009Z" fill="#00A29A"/>
</svg>
